<?xml version="1.0" encoding="UTF-8"?><svg xmlns="http://www.w3.org/2000/svg" viewBox="0 0 758.45 166.75"><defs><style>.d,.e{fill:#0078bf;}.f,.g{fill:#1e243f;}.g,.e{fill-rule:evenodd;}</style></defs><g id="a"/><g id="b"><g id="c"><g><g><path class="g" d="M543.88,11.32h158.95c9.45,0,17.17,7.73,17.17,17.17v119.16c0,9.45-7.73,17.17-17.17,17.17h-158.95c-9.45,0-17.17-7.73-17.17-17.17V28.49c0-9.45,7.73-17.17,17.17-17.17h0Zm47.27,49.92h0v88.25h56.66c7,0,13.82-.68,20.31-2.05,6.31-1.19,12.46-4.1,18.09-8.7,7-5.8,11.95-12.8,14.68-21.16,2.73-8.36,4.1-16.89,4.27-25.6v-4.44c-.17-1.54-.17-2.9-.34-4.44-1.19-19.28-6.48-33.62-15.7-42.66-9.39-9.05-23.38-13.65-41.98-13.65h-55.97v21.33h55.63c3.92,0,7.85,.34,11.77,1.02,3.93,.85,7.34,2.73,10.24,5.97,2.56,2.9,4.44,6.31,5.63,10.07,1.02,3.93,1.71,7.85,2.05,11.77,.17,1.88,.17,3.75,.34,5.63v10.75c-.17,1.88-.17,3.58-.34,5.46-.17,4.1-.85,8.02-1.88,11.95-1.19,3.93-3.07,7.51-5.8,10.75-2.9,3.24-6.31,5.12-10.24,5.63-3.93,.68-7.85,1.02-11.77,1.02h-29.86V61.24h-25.77Zm-13.68,88.25h0V26.79h-26.96v122.7h26.96Z"/><rect class="f" x="387.89" y="11.45" width="30.72" height="27.94"/><rect class="d" x="387.89" y="52.41" width="30.72" height="112.42"/><polygon class="e" points="0 94.43 0 101.9 0 164.83 32.64 164.83 32.64 101.9 124.58 101.9 124.58 75.66 32.64 75.66 32.64 38.12 72.53 38.12 126.36 38.12 126.36 11.45 75.51 11.45 32.64 11.45 0 11.45 0 38.12 0 75.66 0 94.43"/><path class="e" d="M377.57,164.96h-24.77v.02c-.36,0-.72,0-1.08-.02h-.08c-2.1,0-4.13-.29-6.06-.84-13.57-3.28-23.74-15.56-23.74-30.1V11.45h30.96V52.43h24.77v22.42h-24.77v57.83c0,5.12,4.14,9.28,9.24,9.28h15.53v23.01Z"/><path class="e" d="M234.06,52.51h37.09c22.17,0,40.3,18.14,40.3,40.31h-29.78c0-9.64-6.23-17.61-13.78-17.61h-15.21v89.62h-29.41V52.51h10.79Z"/><path class="e" d="M446.65,164.83h30.96V74.72h31.87v-22.42h-31.87v-9.28c0-5.12,4.14-9.28,9.24-9.28h22.64V11.32h-31.87v-.02c-.36,0-.72,0-1.08,.02h-.08c-2.1,0-4.13,.29-6.06,.84-13.57,3.28-23.74,15.56-23.74,30.1v10.04h-17.66v22.42h17.66v90.11Z"/><path class="e" d="M143.35,141.15c-6.61-2.56-11.31-6.83-14.08-12.8-2.19-4.22-3.57-8.66-4.24-13.33h-31.09c.63,5.99,2.17,11.93,4.4,17.6,2.77,7.25,6.83,13.44,12.16,18.77s11.95,9.17,19.62,11.73c7.04,2.35,14.51,3.63,22.19,3.63h3.2c7.47-.21,14.93-1.49,22.18-4.05,7.04-2.56,13.23-6.4,18.56-11.31,5.55-5.33,9.81-11.95,12.59-19.62,2.77-7.47,4.05-15.36,4.05-23.25s-1.28-15.79-4.05-23.25-7.04-13.87-12.59-19.2c-5.33-5.12-11.52-8.96-18.77-11.73-7.25-2.77-14.72-4.05-22.4-4.27h-1.92c-7.89,0-15.79,1.28-23.25,3.84-7.47,2.77-14.08,6.83-19.41,12.16-5.76,5.33-9.81,11.95-12.59,19.41-1.97,5.31-3.3,10.84-3.9,16.43h31.13l.07-.43c.21-2.35,.85-4.69,1.49-7.04,1.71-6.19,5.12-10.88,10.24-14.51,5.12-3.41,10.67-5.12,16.64-5.12,1.92,0,3.63,.21,5.55,.43,1.71,.43,3.41,1.07,5.33,1.71,6.19,2.56,10.45,6.83,13.23,12.59,2.77,5.76,4.05,11.95,4.27,18.56v1.07c0,2.35-.21,4.91-.43,7.25-.21,2.35-.85,4.69-1.49,6.83-1.92,6.19-5.55,10.88-10.45,14.29-5.12,3.63-10.67,5.33-16.64,5.33-1.49,0-3.2-.21-4.69-.43-1.71-.21-3.41-.64-4.91-1.28Z"/></g><path class="f" d="M758.45,14.9c0,2.06-.38,3.98-1.13,5.77-.75,1.79-1.8,3.36-3.14,4.7-1.34,1.34-2.9,2.39-4.69,3.14s-3.7,1.13-5.76,1.13h-.19c-2.06,0-3.98-.38-5.77-1.13-1.79-.75-3.36-1.8-4.7-3.14-1.34-1.34-2.39-2.91-3.14-4.7-.75-1.79-1.13-3.71-1.13-5.77v-.19c0-2.06,.38-3.98,1.13-5.76,.75-1.78,1.8-3.34,3.14-4.69,1.34-1.34,2.91-2.39,4.7-3.14,1.79-.75,3.71-1.13,5.77-1.13h.19c2.06,0,3.98,.38,5.76,1.13s3.34,1.8,4.69,3.14c1.34,1.34,2.39,2.9,3.14,4.69,.75,1.78,1.13,3.7,1.13,5.76v.19Zm-4.85-5.96c-1.01-1.72-2.38-3.08-4.09-4.1-1.72-1.01-3.64-1.52-5.77-1.52h-.19c-2.13,0-4.06,.51-5.79,1.52-1.73,1.01-3.1,2.38-4.11,4.1-1.01,1.72-1.52,3.64-1.52,5.77v.19c0,2.13,.51,4.06,1.52,5.79,1.01,1.73,2.38,3.1,4.11,4.11,1.73,1.01,3.66,1.52,5.79,1.52h.19c2.13,0,4.06-.51,5.77-1.52,1.72-1.01,3.08-2.38,4.09-4.11,1.01-1.73,1.52-3.66,1.52-5.79v-.19c0-2.13-.51-4.06-1.52-5.77Zm-15.88-1.64h6.61c1.83,0,3.25,.43,4.26,1.3,1.01,.87,1.52,2.11,1.52,3.72v.03c0,.95-.25,1.81-.76,2.59-.51,.78-1.2,1.34-2.05,1.68l3.28,5.72h-4l-2.85-5.13h-2.47v5.13h-3.52V7.3Zm6.26,7.06c.79,0,1.41-.19,1.85-.56s.67-.87,.67-1.48-.23-1.12-.7-1.49c-.46-.37-1.09-.55-1.88-.55h-2.66v4.08h2.71Z"/></g></g></g></svg>